<svg xmlns:xlink="http://www.w3.org/1999/xlink" xmlns="http://www.w3.org/2000/svg" viewBox="0 0 374.9130434782609 76.16311787634288" preserveAspectRatio="xMidYMid meet" class="css-8aabad" id="hfeeeabb" width="374.9130434782609"  height="76.16311787634288" ><defs id="SvgjsDefs1001"></defs><g id="SvgjsG1007" featurekey="nRdZyp-0" transform="matrix(1.3131572047645323,0,0,1.3131572047645323,-4.014321472274583,-3.939469109644998)" fill="#FFFFFF"><g xmlns="http://www.w3.org/2000/svg" fill="#FFFFFF"><path d="M31,45.357V45h-9h-0.002c0.002,6.294,3.694,12.064,9.408,14.701l2.697,1.245C34.181,60.981,34.263,61,34.347,61   C34.74,61,35,60.74,35,60.42c0-0.102-0.026-0.2-0.075-0.286C32.356,55.641,31,50.531,31,45.357z" fill="#FFFFFF"></path><path d="M17.065,46.65C13.598,44.916,9.715,44,5.837,44H3.513c0.293,0.382,0.695,0.682,1.176,0.843l1.647,0.548   c1.427,0.476,2.744,1.193,3.918,2.133c3.437,2.748,7.457,4.689,11.729,5.691c-0.824-1.623-1.408-3.37-1.718-5.192   C19.176,47.62,18.099,47.168,17.065,46.65z" fill="#FFFFFF"></path><path d="M33.392,49.914c0.2,1.203,0.479,2.389,0.835,3.555c0.882-0.168,1.76-0.362,2.614-0.607c4.928-1.408,9.2-4.289,12.361-8.22   l-2.908,1.566C42.327,48.344,37.888,49.608,33.392,49.914z" fill="#FFFFFF"></path><path d="M34.551,34.651l2.761,2.483c0.023,0.02,0.047,0.038,0.07,0.058C36.479,34.207,36,31.123,36,28h-0.343   c-2.924,0-5.695,0.989-7.937,2.801C30.229,31.567,32.565,32.864,34.551,34.651z" fill="#FFFFFF"></path><path d="M60.96,29.896C59.876,30.618,58.613,31,57.311,31c-1.223,0-2.372,0.477-3.237,1.341l-2.615,2.615l-0.947-3.792   c-0.255-1.017-0.856-1.924-1.695-2.553l-1.021-0.766c-0.947-0.71-1.676-1.649-2.127-2.735l-0.113,0.15   C44.552,26.598,44,28.253,44,29.924c0,1.758,0.604,3.481,1.703,4.854l2.637,3.297l-0.633,0.633C46.25,40.164,44.232,41,42.172,41   c-2.293,0-4.494-0.845-6.198-2.379l-2.761-2.483c-2.822-2.54-6.431-3.978-10.213-4.112v-1.168c1.721-0.447,3-1.999,3-3.858v-2   c0-1.859-1.279-3.411-3-3.858v-2.211c3.94-0.495,7-3.859,7-7.931c0-4.411-3.589-8-8-8s-8,3.589-8,8c0,4.072,3.06,7.436,7,7.931   v2.211c-1.721,0.447-3,1.999-3,3.858v2c0,1.859,1.279,3.411,3,3.858v1.207c-3.387,0.302-6.604,1.667-9.182,3.924l-0.283,0.247   c-2.01,1.758-4.313,3.078-6.847,3.922C3.841,40.44,3.233,41.15,3.057,42h2.78c4.187,0,8.379,0.989,12.123,2.861   c0.674,0.337,1.367,0.642,2.069,0.928C20.017,45.526,20,45.265,20,45c0-1.103,0.897-2,2-2h9c1.103,0,2,0.897,2,2v0.357   c0,0.86,0.054,1.717,0.134,2.57c4.256-0.273,8.459-1.461,12.213-3.482l6.299-3.394l1.703-2.921l1.363-0.34   c1.753-0.439,3.341-1.458,4.469-2.869c1.146-1.432,1.789-3.222,1.818-5.054L60.96,29.896z M17,39h-2v-2h2V39z M16,11   c0-3.309,2.691-6,6-6s6,2.691,6,6s-2.691,6-6,6S16,14.309,16,11z M20,27v-2c0-0.737,0.405-1.375,1-1.722V25h2v-1.722   c0.595,0.347,1,0.985,1,1.722v2c0,0.737-0.405,1.375-1,1.722V27h-2v1.722C20.405,28.375,20,27.737,20,27z" fill="#FFFFFF"></path></g></g><g id="SvgjsG1008" featurekey="Q4qmbg-0" transform="matrix(2.890546492370991,0,0,2.890546492370991,98.0516426329144,-4.8401989682857565)" fill="#FFFFFF"><path d="M7.54 20 l-3.2 -4.06 c-0.08 0.08 -0.22 0.18 -0.34 0.28 l0 3.78 l-2.98 0 l0 -14.52 l2.98 0 l0 7.12 l2.84 -2.48 l4.42 0 l-4.78 4 c1.46 1.8 3.38 4.14 4.78 5.88 l-3.72 0 z M21.94770833333333 15.08 l0 0.66 l-7.04 0 c0 1.16 1.18 1.98 2.16 1.98 c0.96 0 1.84 -0.38 2.3 -1.22 l1.98 1.82 c-0.8 1.08 -2.02 1.84 -4.28 1.84 c-3.24 0 -5.22 -2.16 -5.22 -5.08 s1.92 -5.1 5.04 -5.1 s5.06 2.14 5.06 5.1 z M14.96770833333333 13.86 l3.88 0 c-0.16 -0.94 -0.84 -1.44 -1.96 -1.44 c-1.08 0 -1.74 0.58 -1.92 1.44 z M32.955416666666665 15.08 l0 0.66 l-7.04 0 c0 1.16 1.18 1.98 2.16 1.98 c0.96 0 1.84 -0.38 2.3 -1.22 l1.98 1.82 c-0.8 1.08 -2.02 1.84 -4.28 1.84 c-3.24 0 -5.22 -2.16 -5.22 -5.08 s1.92 -5.1 5.04 -5.1 s5.06 2.14 5.06 5.1 z M25.975416666666664 13.86 l3.88 0 c-0.16 -0.94 -0.84 -1.44 -1.96 -1.44 c-1.08 0 -1.74 0.58 -1.92 1.44 z M44.263124999999995 15.08 c0 2.92 -1.94 5.08 -4.84 5.08 c-0.6 0 -1.78 -0.36 -2.24 -0.82 l0 5.3 l-2.96 0 l0 -14.52 l2.96 0 l0 0.7 c0.42 -0.5 1.18 -0.84 2.04 -0.84 c2.9 0 5.04 2.18 5.04 5.1 z M41.283125 15.08 c0 -1.58 -1.02 -2.86 -2.26 -2.86 c-0.76 0 -1.5 0.56 -1.9 1.36 c-0.18 0.4 -0.32 0.96 -0.32 1.5 c0 0.56 0.12 1.06 0.32 1.48 c0.42 0.82 1.12 1.36 1.9 1.36 c1.24 0 2.26 -1.28 2.26 -2.84 z M47.99083333333333 13.24 c0 1.18 5 0.62 5 3.74 c0 2.04 -1.8 3.18 -4.04 3.18 c-1.42 0 -2.84 -0.7 -3.96 -1.82 l1.94 -1.94 c0.56 0.68 1.36 1.2 2.02 1.26 s1.22 -0.22 1.32 -0.52 c0.24 -0.76 -1.14 -0.8 -1.56 -0.92 c-1.58 -0.48 -3.42 -1.14 -3.42 -3.1 c0 -2.34 2.44 -3.14 3.66 -3.14 c1.4 0 2.82 0.64 3.96 1.8 l-1.92 1.92 c-0.52 -0.68 -1.42 -1.22 -2.04 -1.22 c-0.32 0 -0.96 0.12 -0.96 0.76 z M61.13854166666666 16.46 l2.08 1.88 c-1.12 1.24 -2.58 1.82 -4.14 1.82 c-2.88 0 -5.2 -2.16 -5.2 -5.08 s2.32 -5.1 5.2 -5.1 c1.56 0 3.02 0.58 4.14 1.82 l-2.08 1.88 c-0.44 -1.02 -1.4 -1.26 -2.06 -1.26 c-1.22 0 -2.24 1.08 -2.24 2.66 c0 1.56 1.02 2.64 2.24 2.64 c0.66 0 1.64 -0.18 2.06 -1.26 z M66.74625 13.04 l-2.2 -1.26 c1.1 -1.24 2.58 -1.82 4.12 -1.82 c2.96 0 4.16 1.62 4.16 3.14 l0 6.9 l-2.96 0 l0 -0.7 c-0.46 0.48 -1.28 0.84 -2.2 0.84 c-2.7 0 -3.74 -1.2 -3.74 -3.04 c0 -2.08 1.68 -3.48 4.4 -3.48 l1.54 0 c0 -0.74 -0.56 -1.22 -1.4 -1.22 c-0.86 0 -1.28 0.16 -1.72 0.64 z M69.86625 16.740000000000002 l0 -0.88 l-1.74 0 c-0.78 0 -1.36 0.54 -1.24 1.3 c0.08 0.54 0.56 0.76 1.24 0.76 c1.3 0 1.74 -0.74 1.74 -1.18 z M84.71395833333334 15.08 c0 2.92 -1.94 5.08 -4.84 5.08 c-0.6 0 -1.78 -0.36 -2.24 -0.82 l0 5.3 l-2.96 0 l0 -14.52 l2.96 0 l0 0.7 c0.42 -0.5 1.18 -0.84 2.04 -0.84 c2.9 0 5.04 2.18 5.04 5.1 z M81.73395833333333 15.08 c0 -1.58 -1.02 -2.86 -2.26 -2.86 c-0.76 0 -1.5 0.56 -1.9 1.36 c-0.18 0.4 -0.32 0.96 -0.32 1.5 c0 0.56 0.12 1.06 0.32 1.48 c0.42 0.82 1.12 1.36 1.9 1.36 c1.24 0 2.26 -1.28 2.26 -2.84 z M95.78166666666667 15.08 l0 0.66 l-7.04 0 c0 1.16 1.18 1.98 2.16 1.98 c0.96 0 1.84 -0.38 2.3 -1.22 l1.98 1.82 c-0.8 1.08 -2.02 1.84 -4.28 1.84 c-3.24 0 -5.22 -2.16 -5.22 -5.08 s1.92 -5.1 5.04 -5.1 s5.06 2.14 5.06 5.1 z M88.80166666666666 13.86 l3.88 0 c-0.16 -0.94 -0.84 -1.44 -1.96 -1.44 c-1.08 0 -1.74 0.58 -1.92 1.44 z" fill="#FFFFFF"></path></g></svg>