<svg xmlns:xlink="http://www.w3.org/1999/xlink" xmlns="http://www.w3.org/2000/svg" class="css-ze2te4 css-qd6ojx" viewBox="0 0 76.08695652173915 76.16311787634288" width="110"  height="110" ><g transform="translate(-4.014321472274583, -3.939469109644998) scale(1.3131572047645323)" class="css-hbtr6a" fill="#3BAFDA"><g xmlns="http://www.w3.org/2000/svg" fill="#3BAFDA"><path d="M31,45.357V45h-9h-0.002c0.002,6.294,3.694,12.064,9.408,14.701l2.697,1.245C34.181,60.981,34.263,61,34.347,61   C34.74,61,35,60.74,35,60.42c0-0.102-0.026-0.2-0.075-0.286C32.356,55.641,31,50.531,31,45.357z" fill="#3BAFDA"></path><path d="M17.065,46.65C13.598,44.916,9.715,44,5.837,44H3.513c0.293,0.382,0.695,0.682,1.176,0.843l1.647,0.548   c1.427,0.476,2.744,1.193,3.918,2.133c3.437,2.748,7.457,4.689,11.729,5.691c-0.824-1.623-1.408-3.37-1.718-5.192   C19.176,47.62,18.099,47.168,17.065,46.65z" fill="#3BAFDA"></path><path d="M33.392,49.914c0.2,1.203,0.479,2.389,0.835,3.555c0.882-0.168,1.76-0.362,2.614-0.607c4.928-1.408,9.2-4.289,12.361-8.22   l-2.908,1.566C42.327,48.344,37.888,49.608,33.392,49.914z" fill="#3BAFDA"></path><path d="M34.551,34.651l2.761,2.483c0.023,0.02,0.047,0.038,0.07,0.058C36.479,34.207,36,31.123,36,28h-0.343   c-2.924,0-5.695,0.989-7.937,2.801C30.229,31.567,32.565,32.864,34.551,34.651z" fill="#3BAFDA"></path><path d="M60.96,29.896C59.876,30.618,58.613,31,57.311,31c-1.223,0-2.372,0.477-3.237,1.341l-2.615,2.615l-0.947-3.792   c-0.255-1.017-0.856-1.924-1.695-2.553l-1.021-0.766c-0.947-0.71-1.676-1.649-2.127-2.735l-0.113,0.15   C44.552,26.598,44,28.253,44,29.924c0,1.758,0.604,3.481,1.703,4.854l2.637,3.297l-0.633,0.633C46.25,40.164,44.232,41,42.172,41   c-2.293,0-4.494-0.845-6.198-2.379l-2.761-2.483c-2.822-2.54-6.431-3.978-10.213-4.112v-1.168c1.721-0.447,3-1.999,3-3.858v-2   c0-1.859-1.279-3.411-3-3.858v-2.211c3.94-0.495,7-3.859,7-7.931c0-4.411-3.589-8-8-8s-8,3.589-8,8c0,4.072,3.06,7.436,7,7.931   v2.211c-1.721,0.447-3,1.999-3,3.858v2c0,1.859,1.279,3.411,3,3.858v1.207c-3.387,0.302-6.604,1.667-9.182,3.924l-0.283,0.247   c-2.01,1.758-4.313,3.078-6.847,3.922C3.841,40.44,3.233,41.15,3.057,42h2.78c4.187,0,8.379,0.989,12.123,2.861   c0.674,0.337,1.367,0.642,2.069,0.928C20.017,45.526,20,45.265,20,45c0-1.103,0.897-2,2-2h9c1.103,0,2,0.897,2,2v0.357   c0,0.86,0.054,1.717,0.134,2.57c4.256-0.273,8.459-1.461,12.213-3.482l6.299-3.394l1.703-2.921l1.363-0.34   c1.753-0.439,3.341-1.458,4.469-2.869c1.146-1.432,1.789-3.222,1.818-5.054L60.96,29.896z M17,39h-2v-2h2V39z M16,11   c0-3.309,2.691-6,6-6s6,2.691,6,6s-2.691,6-6,6S16,14.309,16,11z M20,27v-2c0-0.737,0.405-1.375,1-1.722V25h2v-1.722   c0.595,0.347,1,0.985,1,1.722v2c0,0.737-0.405,1.375-1,1.722V27h-2v1.722C20.405,28.375,20,27.737,20,27z" fill="#3BAFDA"></path></g></g></svg>